<svg width="79" height="78" viewBox="0 0 79 78" fill="none" xmlns="http://www.w3.org/2000/svg">
<circle cx="39.5" cy="39" r="39" fill="#FFCA42"/>
<path d="M51.369 39.6328C51.369 38.7079 52.2439 38.6309 52.2439 38.6309H53.9316V56.6123H52.6503C51.2957 56.6123 51.369 55.6366 51.369 55.6366V39.6328Z" fill="#333333"/>
<path d="M28.8909 39.6328V55.6366C28.8909 55.6366 28.9641 56.6123 27.6096 56.6123H26.3282V38.6309H28.0123C28.0123 38.6309 28.8909 38.7079 28.8909 39.6328Z" fill="#333333"/>
<path d="M22.0076 39.1215V31.623C22.0076 27.1688 23.9187 22.9906 27.3885 19.866C30.8013 16.7908 35.3263 15.0967 40.1287 15.0967C44.9312 15.0967 49.4576 16.7923 52.8689 19.866C56.341 22.9968 58.2513 27.1688 58.2513 31.623V39.1215C59.5004 39.6433 60.8872 40.7093 60.8872 42.8704V52.3506C60.8872 52.3506 60.7715 56.612 56.8389 56.612H54.7924V38.6313H55.6886V31.623C55.6886 23.9988 48.7093 17.7943 40.1295 17.7943C31.5496 17.7943 24.5703 23.9988 24.5703 31.623V38.6313H25.4665V56.612H23.4164C19.4838 56.612 19.3681 52.3506 19.3681 52.3506V42.8704C19.3717 40.7093 20.7593 39.6449 22.0076 39.1215Z" fill="#333333"/>
</svg>
